<?xml version="1.0" encoding="utf-8"?>
<!-- Generator: Adobe Illustrator 16.0.2, SVG Export Plug-In . SVG Version: 6.00 Build 0)  -->
<!DOCTYPE svg PUBLIC "-//W3C//DTD SVG 1.1//EN" "http://www.w3.org/Graphics/SVG/1.1/DTD/svg11.dtd">
<svg version="1.1" id="Layer_1" xmlns="http://www.w3.org/2000/svg" xmlns:xlink="http://www.w3.org/1999/xlink" x="0px" y="0px"
	 width="173.333px" height="50px" viewBox="21.667 0 173.333 50" enable-background="new 21.667 0 173.333 50" xml:space="preserve"
	>
<g>
	<polygon fill="#00A88D" points="128.465,28.777 113.174,1.566 106.888,1.579 91.585,28.777 97.9,28.777 110.024,7.216 
		119.728,24.467 119.645,24.467 103.932,24.467 106.348,28.773 122.15,28.773 122.151,28.777 	"/>
	<polygon fill="#00A88D" points="139.387,23.124 127.26,1.563 120.947,1.563 136.238,28.773 142.523,28.762 157.826,1.563 
		151.512,1.563 	"/>
	<path fill="#00A88D" d="M81.177,17.918c6.325,0,8.141-2.658,8.141-8.481c0-6.527-3.212-7.902-8.583-7.902L60.098,1.566v27.236
		h5.788l0.002-10.863h7.861l10.189,10.863h6.972L80.433,17.918L81.177,17.918L81.177,17.918z M79.549,14.243
		c-0.228-0.006-0.457-0.011-0.683-0.011H65.888l-0.002-8.958H78.77c0.188,0,0.382-0.004,0.579-0.008
		c0.208-0.005,0.421-0.009,0.634-0.009c2.329,0,4.078,0.54,4.078,4.455c0,4.192-2.197,4.542-3.817,4.542
		C80.014,14.254,79.782,14.249,79.549,14.243z"/>
	<path fill="#00A88D" d="M50.161,15.076c0.197-0.027,4.796-0.548,4.796-6.598c0-3.797-1.596-6.913-7.808-6.913L23.245,1.556v27.215
		h25.712c5.443,0,6.775-3.053,6.775-7.384C55.732,17.838,53.702,15.076,50.161,15.076z M38.596,13.298l-2.05,3.71h2.13l2.088-3.71
		H38.596z M45.343,25.065l-0.851-0.002H29.049V17.01l6.037-0.001l2.085-3.711h-8.123V5.243h14.795c0.298,0,1.467-0.006,1.755-0.006
		c2.08,0,4.168-0.091,4.168,3.887c0,4.509-2.619,4.17-4.452,4.17l-0.665-0.002c-0.172,0-0.343,0.002-0.512,0.006h-1.907l-2.1,3.707
		c2.859-0.001,4.39-0.001,4.39-0.001h0.113c3.086,0,5.524,0,5.524,4.15C50.159,25.065,47.375,25.065,45.343,25.065z"/>
	<path fill="#00A88D" d="M180.163,0.995h-8.942c-9.277,0-12.564,2.667-12.564,10.191v7.965c0,7.525,3.287,10.191,12.564,10.191
		h8.942c9.276,0,12.563-2.666,12.563-10.191v-7.965C192.727,3.662,189.439,0.995,180.163,0.995z M186.783,18.489
		c0,5.673-0.916,7.208-7.355,7.208h-7.473c-6.439,0-7.355-1.535-7.355-7.208v-6.643c0-5.671,0.916-7.207,7.355-7.207h7.473
		c6.439,0,7.355,1.536,7.355,7.207V18.489z"/>
</g>
<g>
	<path fill="#FBAF3F" d="M27.772,39.335l4.597,6.827h-2.229l-3.706-5.516l-1.39,1.495v4.021h-1.8V34.231h1.8v5.559h0.079
		l4.973-5.559h2.054L27.772,39.335z"/>
	<path fill="#FBAF3F" d="M33.625,42.176v-1.268c0-2.604,1.661-4.133,3.89-4.133c2.272,0,3.889,1.599,3.889,4.133v1.094h-6.031v0.445
		c0,1.337,0.805,2.334,2.247,2.334c1.049,0,1.757-0.48,1.905-1.049h1.766c-0.131,1.058-1.25,2.586-3.653,2.586
		C35.137,46.318,33.625,44.771,33.625,42.176z M39.665,40.752V40.62c0-1.407-0.848-2.352-2.141-2.352s-2.15,0.944-2.15,2.352v0.132
		H39.665z"/>
	<path fill="#FBAF3F" d="M48.271,46.057l-0.236,0.638c-0.542,1.513-1.259,2.797-3.321,2.797c-0.394,0-0.813-0.044-1.049-0.087
		v-1.442c0.148,0.035,0.48,0.053,0.708,0.053c1.11,0,1.539-0.498,1.766-1.363l0.122-0.411l-3.33-9.309h1.949l2.316,7.491h0.079
		l2.325-7.491h1.871C51.47,36.932,48.289,46.004,48.271,46.057z"/>
	<path fill="#FBAF3F" d="M58.406,38.496h-1.538v-1.512h1.538v-0.918c0-1.809,0.866-2.596,2.963-2.596c0.48,0,0.952,0.043,1.11,0.061
		v1.434c-0.131-0.018-0.568-0.043-0.831-0.043c-1.049,0-1.503,0.306-1.503,1.293v0.77h2.124v1.512h-2.097v7.666h-1.766V38.496z"/>
	<path fill="#FBAF3F" d="M72.004,40.926v1.216c0,2.665-1.687,4.177-4.038,4.177c-2.386,0-4.046-1.494-4.046-4.177v-1.216
		c0-2.517,1.687-4.15,4.046-4.15C70.317,36.775,72.004,38.33,72.004,40.926z M65.685,41.022v1.04c0,1.574,0.795,2.71,2.281,2.71
		c1.469,0,2.255-1.136,2.255-2.71v-1.04c0-1.565-0.831-2.718-2.255-2.718C66.542,38.304,65.685,39.457,65.685,41.022z"/>
	<path fill="#FBAF3F" d="M74.702,36.932h1.766v1.434h0.087c0.219-0.621,0.891-1.573,2.473-1.573c0.227,0,0.437,0.026,0.612,0.053
		v1.678c-0.157-0.044-0.481-0.061-0.787-0.061c-1.582,0-2.36,0.935-2.36,2.175v5.524h-1.792L74.702,36.932L74.702,36.932z"/>
	<path fill="#FBAF3F" d="M85.711,36.932h1.748v1.494h0.087c0.209-0.664,0.813-1.634,2.5-1.634c1.398,0,2.264,0.743,2.552,1.73h0.079
		c0.358-0.883,1.241-1.73,2.806-1.73c1.878,0,3.015,1.066,3.015,2.901v6.469h-1.765v-5.936c0-1.171-0.655-1.861-1.827-1.861
		c-1.093,0-1.932,0.804-1.932,2.037v5.759h-1.73v-5.882c0-1.197-0.734-1.914-1.862-1.914c-1.101,0-1.906,0.777-1.906,2.02v5.776
		h-1.765L85.711,36.932L85.711,36.932z"/>
	<path fill="#FBAF3F" d="M100.958,43.479c0-1.626,1.128-2.727,3.252-2.727h2.369v-0.875c0-1.075-0.708-1.555-1.827-1.555
		c-1.11,0-1.59,0.419-1.757,1.031h-1.687c0.122-1.539,1.32-2.562,3.497-2.562c1.94,0,3.539,0.813,3.539,3.111v6.258h-1.687v-1.197
		h-0.079c-0.428,0.708-1.241,1.347-2.605,1.347C102.191,46.311,100.958,45.199,100.958,43.479z M106.579,43.051v-1.015h-2.15
		c-1.18,0-1.687,0.577-1.687,1.347c0,0.979,0.838,1.459,1.756,1.459C105.67,44.842,106.579,44.072,106.579,43.051z"/>
	<path fill="#FBAF3F" d="M111.295,36.932h1.748v1.652h0.088c0.236-0.717,0.883-1.792,2.779-1.792c1.862,0,3.119,1.022,3.119,3.121
		v6.249h-1.773v-5.708c0-1.416-0.733-2.071-1.896-2.071c-1.529,0-2.299,1.119-2.299,2.631v5.147h-1.766V36.932z"/>
	<path fill="#FBAF3F" d="M121.483,43.479c0-1.626,1.128-2.727,3.251-2.727h2.369v-0.875c0-1.075-0.708-1.555-1.826-1.555
		c-1.11,0-1.592,0.419-1.758,1.031h-1.688c0.123-1.539,1.32-2.562,3.497-2.562c1.94,0,3.54,0.813,3.54,3.111v6.258h-1.688v-1.197
		h-0.078c-0.43,0.708-1.242,1.347-2.605,1.347C122.716,46.311,121.483,45.199,121.483,43.479z M127.104,43.051v-1.015h-2.15
		c-1.18,0-1.688,0.577-1.688,1.347c0,0.979,0.84,1.459,1.758,1.459C126.195,44.842,127.104,44.072,127.104,43.051z"/>
	<path fill="#FBAF3F" d="M137.572,45.918v-1.373h-0.097c-0.358,0.804-1.302,1.451-2.587,1.451c-2.037,0-3.602-1.46-3.602-3.969
		v-1.25c0-2.508,1.556-3.977,3.592-3.977c1.373,0,2.361,0.752,2.666,1.529h0.079v-1.398h1.704v9.056
		c0,2.587-1.773,3.618-4.143,3.618c-2.465,0-3.584-1.206-3.697-2.596h1.766c0.131,0.63,0.848,1.102,2.002,1.102
		C136.803,48.111,137.572,47.289,137.572,45.918z M133.07,41.031v0.805c0,1.607,0.971,2.656,2.334,2.656
		c1.39,0,2.168-1.119,2.168-2.421v-1.25c0-1.328-0.822-2.464-2.186-2.464C133.962,38.357,133.07,39.414,133.07,41.031z"/>
	<path fill="#FBAF3F" d="M141.895,42.176v-1.268c0-2.604,1.662-4.133,3.891-4.133c2.272,0,3.89,1.599,3.89,4.133v1.094h-6.031v0.445
		c0,1.337,0.804,2.334,2.247,2.334c1.048,0,1.756-0.48,1.904-1.049h1.766c-0.131,1.058-1.25,2.586-3.653,2.586
		C143.408,46.318,141.895,44.771,141.895,42.176z M147.936,40.752V40.62c0-1.407-0.848-2.352-2.143-2.352
		c-1.293,0-2.149,0.944-2.149,2.352v0.132H147.936z"/>
	<path fill="#FBAF3F" d="M152.197,36.932h1.748v1.494h0.088c0.209-0.664,0.813-1.634,2.499-1.634c1.398,0,2.265,0.743,2.552,1.73
		h0.079c0.358-0.883,1.241-1.73,2.806-1.73c1.879,0,3.016,1.066,3.016,2.901v6.469h-1.766v-5.936c0-1.171-0.655-1.861-1.826-1.861
		c-1.094,0-1.932,0.804-1.932,2.037v5.759h-1.73v-5.882c0-1.197-0.734-1.914-1.861-1.914c-1.102,0-1.906,0.777-1.906,2.02v5.776
		h-1.766V36.932L152.197,36.932z"/>
	<path fill="#FBAF3F" d="M167.515,42.176v-1.268c0-2.604,1.66-4.133,3.89-4.133c2.272,0,3.889,1.599,3.889,4.133v1.094h-6.029v0.445
		c0,1.337,0.804,2.334,2.246,2.334c1.049,0,1.756-0.48,1.904-1.049h1.766c-0.131,1.058-1.249,2.586-3.652,2.586
		C169.027,46.318,167.515,44.771,167.515,42.176z M173.555,40.752V40.62c0-1.407-0.85-2.352-2.142-2.352
		c-1.294,0-2.149,0.944-2.149,2.352v0.132H173.555z"/>
	<path fill="#FBAF3F" d="M177.816,36.932h1.748v1.652h0.088c0.236-0.717,0.883-1.792,2.779-1.792c1.861,0,3.12,1.022,3.12,3.121
		v6.249h-1.774v-5.708c0-1.416-0.734-2.071-1.896-2.071c-1.53,0-2.299,1.119-2.299,2.631v5.147h-1.766V36.932L177.816,36.932z"/>
	<path fill="#FBAF3F" d="M189.045,34.678h1.739v2.307h2.071v1.512h-2.071v4.93c0,1.014,0.366,1.295,1.442,1.295
		c0.244,0,0.594-0.019,0.742-0.035v1.459c-0.139,0.035-0.787,0.088-1.18,0.088c-2.221,0-2.762-0.813-2.762-2.666v-5.07h-1.407
		v-1.512h1.425V34.678L189.045,34.678z"/>
</g>
</svg>
